<svg width="215" height="213" viewBox="0 0 215 213" fill="none" xmlns="http://www.w3.org/2000/svg">
<path d="M142.047 1.89832C141.126 1.95961 140.238 2.32196 139.482 2.94473C138.725 3.5675 138.132 4.42608 137.767 5.42418C136.696 8.4722 138.074 12.0525 140.143 14.2752C142.212 16.4978 144.87 17.7683 147.284 19.4382C150.528 21.6812 153.442 24.7948 155.065 28.7916C156.687 32.7884 156.86 37.7393 154.953 41.5576C153.182 45.1016 149.963 47.2227 146.892 49.1789" stroke="#181B1B" stroke-miterlimit="10"/>
<path d="M144.774 4.32746C146.862 4.32746 148.555 3.35873 148.555 2.16373C148.555 0.968736 146.862 0 144.774 0C142.685 0 140.992 0.968736 140.992 2.16373C140.992 3.35873 142.685 4.32746 144.774 4.32746Z" fill="#5E3E00"/>
<path d="M147.799 18.5826C149.887 18.5826 151.58 17.6139 151.58 16.4189C151.58 15.2239 149.887 14.2552 147.799 14.2552C145.711 14.2552 144.018 15.2239 144.018 16.4189C144.018 17.6139 145.711 18.5826 147.799 18.5826Z" fill="#5E3E00"/>
<path d="M140.884 20.8737C142.973 20.8737 144.666 19.9049 144.666 18.7099C144.666 17.5149 142.973 16.5462 140.884 16.5462C138.796 16.5462 137.103 17.5149 137.103 18.7099C137.103 19.9049 138.796 20.8737 140.884 20.8737Z" fill="#5E3E00"/>
<path d="M151.688 32.8378C153.777 32.8378 155.47 31.8691 155.47 30.6741C155.47 29.4791 153.777 28.5104 151.688 28.5104C149.6 28.5104 147.907 29.4791 147.907 30.6741C147.907 31.8691 149.6 32.8378 151.688 32.8378Z" fill="#5E3E00"/>
<path d="M159.251 32.8378C161.34 32.8378 163.033 31.8691 163.033 30.6741C163.033 29.4791 161.34 28.5104 159.251 28.5104C157.163 28.5104 155.47 29.4791 155.47 30.6741C155.47 31.8691 157.163 32.8378 159.251 32.8378Z" fill="#5E3E00"/>
<path d="M162.03 72.8662C161.182 72.4389 160.249 72.2984 159.337 72.4605C158.425 72.6225 157.569 73.0808 156.865 73.7838C154.757 75.9539 154.641 79.8828 155.656 82.957C156.671 86.0313 158.572 88.5607 160.105 91.3208C162.165 95.028 163.601 99.343 163.547 103.773C163.493 108.203 161.78 112.729 158.631 115.151C155.708 117.398 152.024 117.613 148.535 117.758" stroke="#181B1B" stroke-miterlimit="10"/>
<path d="M167.76 76.5112C168.211 75.4406 167.06 73.6865 165.189 72.5932C163.318 71.4998 161.436 71.4813 160.985 72.5518C160.534 73.6223 161.686 75.3765 163.556 76.4698C165.427 77.5632 167.309 77.5817 167.76 76.5112Z" fill="#5E3E00"/>
<path d="M165.093 90.8651C165.544 89.7946 164.392 88.0404 162.521 86.9471C160.651 85.8538 158.769 85.8353 158.318 86.9058C157.867 87.9763 159.018 89.7304 160.889 90.8238C162.76 91.9171 164.642 91.9356 165.093 90.8651Z" fill="#5E3E00"/>
<path d="M158.034 89.2975C158.485 88.227 157.334 86.4728 155.463 85.3795C153.592 84.2862 151.71 84.2677 151.259 85.3382C150.809 86.4087 151.96 88.1628 153.831 89.2562C155.701 90.3495 157.584 90.368 158.034 89.2975Z" fill="#5E3E00"/>
<path d="M163.2 105.672C163.65 104.601 162.499 102.847 160.628 101.754C158.758 100.66 156.876 100.642 156.425 101.712C155.974 102.783 157.125 104.537 158.996 105.63C160.867 106.724 162.749 106.742 163.2 105.672Z" fill="#5E3E00"/>
<path d="M169.975 109.631C170.426 108.56 169.274 106.806 167.403 105.713C165.533 104.62 163.651 104.601 163.2 105.672C162.749 106.742 163.9 108.496 165.771 109.59C167.642 110.683 169.524 110.701 169.975 109.631Z" fill="#5E3E00"/>
<path d="M64.3927 93.2719C65.047 92.5057 65.8696 91.9694 66.7681 91.7231C67.6666 91.4768 68.6057 91.5302 69.4799 91.8774C72.1198 92.9766 73.4594 96.5773 73.48 99.8757C73.5007 103.174 72.5266 106.352 71.9672 109.584C71.2158 113.925 71.2339 118.56 72.6729 122.653C74.1119 126.747 77.1226 130.207 80.8084 131.087C84.2295 131.905 87.7204 130.501 91.0077 129.118" stroke="#181B1B" stroke-miterlimit="10"/>
<path d="M64.104 97.2849C65.4998 95.4548 66.0196 93.3238 65.2651 92.5251C64.5106 91.7264 62.7674 92.5625 61.3716 94.3926C59.9758 96.2227 59.4559 98.3537 60.2104 99.1524C60.965 99.951 62.7082 99.1149 64.104 97.2849Z" fill="#5E3E00"/>
<path d="M71.083 109.463C72.4788 107.633 72.9986 105.502 72.2441 104.704C71.4896 103.905 69.7464 104.741 68.3506 106.571C66.9548 108.401 66.4349 110.532 67.1894 111.331C67.944 112.129 69.6872 111.293 71.083 109.463Z" fill="#5E3E00"/>
<path d="M77.151 104.935C78.5468 103.105 79.0666 100.974 78.3121 100.176C77.5576 99.3769 75.8144 100.213 74.4186 102.043C73.0228 103.873 72.5029 106.004 73.2574 106.803C74.012 107.602 75.7552 106.765 77.151 104.935Z" fill="#5E3E00"/>
<path d="M77.4843 122.399C78.8801 120.569 79.4 118.438 78.6455 117.639C77.8909 116.841 76.1477 117.677 74.7519 119.507C73.3561 121.337 72.8363 123.468 73.5908 124.267C74.3453 125.065 76.0885 124.229 77.4843 122.399Z" fill="#5E3E00"/>
<path d="M72.4296 129.026C73.8254 127.196 74.3453 125.065 73.5908 124.267C72.8362 123.468 71.0931 124.304 69.6972 126.134C68.3014 127.964 67.7816 130.095 68.5361 130.894C69.2907 131.693 71.0338 130.856 72.4296 129.026Z" fill="#5E3E00"/>
<path d="M151.36 63.8835L150.766 69.018L147.092 100.7L141.077 152.584L139.571 165.574C139.456 166.566 139.04 167.475 138.4 168.133C137.76 168.791 136.939 169.153 136.09 169.153H95.9743C95.1261 169.153 94.3065 168.792 93.6667 168.136C93.0269 167.48 92.6101 166.574 92.4932 165.584L90.9612 152.584L84.844 100.7L81.1058 68.995L80.5051 63.8937C80.4357 63.3077 80.4739 62.711 80.6169 62.1438C80.7599 61.5766 81.0046 61.0522 81.3343 60.6059C81.664 60.1595 82.0711 59.8017 82.5282 59.5565C82.9853 59.3113 83.4817 59.1844 83.984 59.1844H147.879C148.38 59.1847 148.876 59.3114 149.332 59.556C149.789 59.8005 150.196 60.1574 150.525 60.6025C150.855 61.0476 151.1 61.5707 151.244 62.1366C151.388 62.7025 151.428 63.2982 151.36 63.8835Z" fill="#5E3E00"/>
<path d="M143.853 45.4384H88.2171C86.2766 45.4384 84.7036 47.2915 84.7036 49.5775V55.0453C84.7036 57.3313 86.2766 59.1844 88.2171 59.1844H143.853C145.794 59.1844 147.367 57.3313 147.367 55.0453V49.5775C147.367 47.2915 145.794 45.4384 143.853 45.4384Z" fill="#181B1B"/>
<path opacity="0.1" d="M147.367 51.9346V55.0453C147.367 56.1431 146.997 57.1959 146.338 57.9721C145.679 58.7483 144.785 59.1844 143.853 59.1844H88.2171C87.2853 59.1844 86.3916 58.7483 85.7327 57.9721C85.0738 57.1959 84.7036 56.1431 84.7036 55.0453V51.9423C105.544 54.2817 126.527 54.2791 147.367 51.9346Z" fill="black"/>
<path d="M99.2889 98.5135C104.54 98.5135 108.796 93.4988 108.796 87.313C108.796 81.1271 104.54 76.1125 99.2889 76.1125C94.038 76.1125 89.7814 81.1271 89.7814 87.313C89.7814 93.4988 94.038 98.5135 99.2889 98.5135Z" fill="#181B1B"/>
<path d="M132.997 98.5135C138.248 98.5135 142.505 93.4988 142.505 87.313C142.505 81.1271 138.248 76.1125 132.997 76.1125C127.747 76.1125 123.49 81.1271 123.49 87.313C123.49 93.4988 127.747 98.5135 132.997 98.5135Z" fill="#181B1B"/>
<path d="M98.8568 90.3676C100.289 90.3676 101.45 89 101.45 87.313C101.45 85.6259 100.289 84.2583 98.8568 84.2583C97.4247 84.2583 96.2638 85.6259 96.2638 87.313C96.2638 89 97.4247 90.3676 98.8568 90.3676Z" fill="white"/>
<path d="M102.746 82.7309C103.343 82.7309 103.827 82.1611 103.827 81.4581C103.827 80.7552 103.343 80.1854 102.746 80.1854C102.15 80.1854 101.666 80.7552 101.666 81.4581C101.666 82.1611 102.15 82.7309 102.746 82.7309Z" fill="white"/>
<path d="M132.997 90.3676C134.43 90.3676 135.59 89 135.59 87.313C135.59 85.6259 134.43 84.2583 132.997 84.2583C131.565 84.2583 130.405 85.6259 130.405 87.313C130.405 89 131.565 90.3676 132.997 90.3676Z" fill="white"/>
<path d="M136.887 82.7309C137.484 82.7309 137.967 82.1611 137.967 81.4581C137.967 80.7552 137.484 80.1854 136.887 80.1854C136.29 80.1854 135.807 80.7552 135.807 81.4581C135.807 82.1611 136.29 82.7309 136.887 82.7309Z" fill="white"/>
<path opacity="0.1" d="M151.16 61.8573H151.161C151.16 61.8542 151.158 61.8512 151.157 61.8481C151.065 61.5632 150.946 61.2912 150.803 61.0371L150.802 61.0364C150.76 60.9614 150.715 60.8889 150.669 60.8174C150.653 60.7934 150.637 60.77 150.621 60.7465C150.487 60.5474 150.337 60.3633 150.174 60.1965C150.137 60.1591 150.1 60.1223 150.063 60.0868C150.02 60.0469 149.978 60.0078 149.934 59.9703C149.879 59.9232 149.822 59.879 149.765 59.8356C149.72 59.8016 149.674 59.7681 149.628 59.7364C149.555 59.6873 149.482 59.6412 149.407 59.5979C149.371 59.5775 149.335 59.5584 149.298 59.5393C149.226 59.5018 149.153 59.4671 149.079 59.4353C149.049 59.4225 149.019 59.4084 148.989 59.3965C148.886 59.356 148.781 59.3212 148.674 59.2919C148.648 59.2848 148.621 59.2797 148.594 59.2732C148.507 59.2518 148.418 59.2344 148.328 59.2209C148.295 59.216 148.263 59.211 148.23 59.2072C148.114 59.1937 147.998 59.1845 147.879 59.1844L147.879 59.1844H83.984C83.4824 59.1864 82.9869 59.3146 82.5307 59.5604C82.0744 59.8061 81.6681 60.1639 81.3387 60.6096C81.0093 61.0554 80.7645 61.5788 80.6207 62.145C80.4769 62.7112 80.4374 63.307 80.5049 63.8926L80.6064 64.7533L81.1058 68.995L81.1064 68.9951L84.8443 100.7H84.844L89.7508 142.318L92.4938 165.583C92.6104 166.573 93.027 167.479 93.6666 168.136C94.3062 168.792 95.1256 169.153 95.9736 169.153H97.8774C97.7832 168.864 97.7169 168.563 97.6797 168.256L95.832 152.584H141.077L147.092 100.7H89.7151L86.0371 69.5026C107.584 71.5612 129.243 71.399 150.766 69.018L151.36 63.8835C151.439 63.1991 151.37 62.5022 151.16 61.8573Z" fill="black"/>
<path d="M156.386 66.0575C129.565 69.5063 102.505 69.5063 75.6841 66.0575C74.7524 66.0575 73.8588 65.6214 73.1999 64.8452C72.541 64.069 72.1709 63.0163 72.1709 61.9186V56.4502C72.1709 55.3526 72.541 54.2998 73.1999 53.5236C73.8588 52.7475 74.7524 52.3114 75.6841 52.3114C102.484 56.1932 129.586 56.1932 156.386 52.3114C157.318 52.3114 158.212 52.7475 158.87 53.5236C159.529 54.2998 159.899 55.3526 159.899 56.4502V61.9186C159.899 63.0163 159.529 64.069 158.87 64.8452C158.212 65.6214 157.318 66.0575 156.386 66.0575Z" fill="#181B1B"/>
<path d="M142.729 150.698H88.7117C88.2268 150.698 87.7577 150.494 87.3889 150.123C87.0201 149.752 86.7758 149.238 86.6997 148.674L80.8641 105.362C80.8179 105.02 80.8353 104.669 80.9152 104.335C80.9951 104.001 81.1355 103.692 81.3267 103.428C81.518 103.164 81.7555 102.952 82.023 102.807C82.2904 102.662 82.5815 102.586 82.876 102.586H148.953C149.25 102.586 149.542 102.662 149.811 102.809C150.08 102.956 150.318 103.171 150.509 103.437C150.701 103.704 150.84 104.017 150.918 104.353C150.996 104.69 151.011 105.043 150.962 105.387L144.737 148.698C144.657 149.257 144.411 149.765 144.043 150.131C143.676 150.497 143.21 150.698 142.729 150.698Z" fill="#181B1B"/>
<path d="M136.582 119.825C136.837 119.88 137.074 120.015 137.269 120.215C137.464 120.416 137.61 120.674 137.691 120.964C137.772 121.254 137.785 121.564 137.728 121.862C137.672 122.159 137.549 122.434 137.371 122.656C133.944 126.96 125.634 135.933 115.927 135.933C106.22 135.933 97.9102 126.96 94.4829 122.656C94.3055 122.434 94.1821 122.159 94.1259 121.862C94.0697 121.564 94.0827 121.254 94.1635 120.964C94.2443 120.674 94.3899 120.416 94.585 120.215C94.7802 120.015 95.0176 119.88 95.2723 119.825C108.928 116.865 122.927 116.865 136.582 119.825H136.582Z" fill="#330E00"/>
<path d="M126.731 122.509C126.994 122.558 127.24 122.693 127.442 122.897C127.644 123.102 127.794 123.369 127.875 123.668C127.957 123.967 127.966 124.286 127.902 124.591C127.838 124.896 127.703 125.173 127.513 125.394C125.192 128.059 120.873 132.079 115.927 132.079C110.982 132.079 106.662 128.059 104.341 125.394C104.151 125.173 104.017 124.896 103.953 124.591C103.889 124.286 103.898 123.967 103.979 123.668C104.06 123.369 104.21 123.102 104.412 122.897C104.614 122.693 104.86 122.558 105.123 122.509C112.277 121.109 119.577 121.109 126.731 122.509Z" fill="white"/>
</svg>
