<svg width="310" height="239" viewBox="0 0 310 239" fill="none" xmlns="http://www.w3.org/2000/svg">
<g clip-path="url(#clip0)">
<path d="M155.995 239C240.054 239 308.197 232.604 308.197 224.714C308.197 216.824 240.054 210.428 155.995 210.428C71.9357 210.428 3.79236 216.824 3.79236 224.714C3.79236 232.604 71.9357 239 155.995 239Z" fill="#F2F2F2"/>
<path d="M150.161 68.3211C125.363 68.3211 107.559 90.8778 107.559 143.51C107.559 203.16 125.363 218.95 150.161 218.95C174.959 218.95 193.824 201.656 193.824 143.51C193.824 81.3539 174.959 68.3211 150.161 68.3211ZM150.324 199.15C133.149 199.15 124.175 184.863 124.175 143.549C124.175 107.094 133.516 87.8703 150.691 87.8703C167.867 87.8703 177.208 100.498 177.208 143.549C177.208 183.822 167.5 199.15 150.324 199.15Z" fill="#181B1B"/>
<path d="M92.7097 177.345H82.4568V134.539C82.4568 132.265 81.8197 130.085 80.6858 128.477C79.5518 126.869 78.0139 125.966 76.4103 125.966H74.0078C73.2138 125.966 72.4275 126.188 71.6939 126.619C70.9603 127.049 70.2938 127.681 69.7323 128.477C69.1708 129.273 68.7254 130.218 68.4216 131.258C68.1177 132.298 67.9613 133.413 67.9613 134.539V177.345H39.0414C38.4464 177.345 37.8616 177.127 37.3436 176.712C36.8256 176.297 36.392 175.7 36.0849 174.977C35.7778 174.255 35.6077 173.432 35.5909 172.589C35.5742 171.746 35.7114 170.911 35.9894 170.165L66.5979 88.0286C66.9795 87.0046 67.2108 85.8816 67.2778 84.7273C67.3448 83.573 67.2462 82.4115 66.9879 81.3127C66.7295 80.214 66.3168 79.2009 65.7747 78.3345C65.2326 77.4682 64.5723 76.7665 63.8336 76.272L62.0267 75.0623C60.6237 74.1229 59.0196 73.9842 57.5465 74.6748C56.0734 75.3655 54.8439 76.8326 54.1124 78.7727L16.7813 177.785C16.1456 179.471 15.813 181.353 15.813 183.265C15.813 184.791 16.0251 186.303 16.4371 187.713C16.8491 189.123 17.4531 190.405 18.2144 191.484C18.9758 192.564 19.8796 193.42 20.8743 194.004C21.8691 194.588 22.9353 194.889 24.012 194.889H67.9613V221.957C67.9613 223.307 68.1488 224.643 68.513 225.89C68.8772 227.136 69.4111 228.269 70.0841 229.223C70.7571 230.177 71.5561 230.934 72.4354 231.451C73.3148 231.967 74.2572 232.233 75.209 232.233H75.209C76.1608 232.233 77.1033 231.967 77.9826 231.451C78.862 230.934 79.6609 230.177 80.3339 229.223C81.007 228.269 81.5408 227.136 81.9051 225.89C82.2693 224.643 82.4568 223.307 82.4568 221.957V194.889H92.7097C94.3506 194.889 95.9243 193.965 97.0846 192.32C98.2449 190.675 98.8967 188.444 98.8967 186.117C98.8967 183.791 98.2449 181.559 97.0846 179.914C95.9243 178.269 94.3506 177.345 92.7097 177.345Z" fill="#330E00"/>
<path d="M282.565 177.345H272.312V134.539C272.312 132.265 271.675 130.085 270.541 128.477C269.407 126.869 267.869 125.966 266.265 125.966H263.863C263.069 125.966 262.283 126.188 261.549 126.619C260.816 127.049 260.149 127.681 259.587 128.477C259.026 129.273 258.581 130.218 258.277 131.258C257.973 132.298 257.817 133.413 257.817 134.539V177.345H228.897C228.302 177.345 227.717 177.127 227.199 176.712C226.681 176.297 226.247 175.7 225.94 174.977C225.633 174.255 225.463 173.432 225.446 172.589C225.429 171.746 225.567 170.911 225.845 170.165L256.453 88.0286C256.835 87.0046 257.066 85.8816 257.133 84.7273C257.2 83.573 257.101 82.4115 256.843 81.3127C256.585 80.214 256.172 79.2009 255.63 78.3345C255.088 77.4682 254.427 76.7665 253.689 76.272L251.882 75.0623C250.479 74.1229 248.875 73.9842 247.402 74.6748C245.929 75.3655 244.699 76.8326 243.968 78.7727L206.636 177.785C206.001 179.471 205.668 181.353 205.668 183.265C205.668 186.348 206.532 189.304 208.07 191.484C209.607 193.664 211.693 194.889 213.867 194.889H257.817V221.957C257.817 224.682 258.58 227.296 259.939 229.223C261.299 231.15 263.142 232.233 265.064 232.233C266.986 232.233 268.83 231.15 270.189 229.223C271.548 227.296 272.312 224.682 272.312 221.957V194.889H282.565C284.206 194.889 285.779 193.965 286.94 192.32C288.1 190.675 288.752 188.444 288.752 186.117C288.752 183.791 288.1 181.559 286.94 179.914C285.779 178.269 284.206 177.345 282.565 177.345Z" fill="#330E00"/>
<path d="M95.538 172.332H85.2851V129.526C85.2851 128.4 85.1288 127.286 84.8249 126.245C84.521 125.205 84.0756 124.26 83.5142 123.464C82.9527 122.668 82.2861 122.037 81.5525 121.606C80.8189 121.175 80.0327 120.953 79.2386 120.953H76.8362C75.2326 120.953 73.6946 121.857 72.5607 123.464C71.4267 125.072 70.7897 127.252 70.7897 129.526V172.332H41.8698C41.2748 172.332 40.69 172.114 40.172 171.7C39.654 171.285 39.2204 170.687 38.9133 169.965C38.6062 169.242 38.436 168.419 38.4193 167.576C38.4026 166.733 38.5398 165.898 38.8177 165.152L69.4263 83.0161C69.8079 81.9921 70.0392 80.869 70.1062 79.7147C70.1732 78.5605 70.0746 77.3989 69.8163 76.3002C69.5579 75.2014 69.1452 74.1883 68.6031 73.322C68.061 72.4556 67.4007 71.754 66.662 71.2594L64.8551 70.0497C63.4521 69.1103 61.848 68.9716 60.3749 69.6623C58.9017 70.3529 57.6722 71.82 56.9408 73.7601L19.6096 172.772C18.9739 174.458 18.6414 176.34 18.6414 178.252V178.252C18.6414 181.335 19.5052 184.292 21.0428 186.472C22.5804 188.652 24.6658 189.877 26.8403 189.877H70.7897V216.945C70.7897 218.294 70.9772 219.63 71.3414 220.877C71.7056 222.124 72.2395 223.256 72.9125 224.211C73.5855 225.165 74.3845 225.922 75.2638 226.438C76.1432 226.955 77.0856 227.22 78.0374 227.22H78.0374C79.9596 227.22 81.8031 226.138 83.1623 224.211C84.5215 222.284 85.2851 219.67 85.2851 216.945V189.877H95.538C96.3505 189.877 97.1551 189.65 97.9057 189.209C98.6564 188.768 99.3384 188.122 99.913 187.307C100.487 186.493 100.943 185.526 101.254 184.461C101.565 183.397 101.725 182.256 101.725 181.105V181.105C101.725 179.953 101.565 178.812 101.254 177.748C100.943 176.683 100.487 175.716 99.913 174.902C99.3385 174.087 98.6564 173.441 97.9057 173C97.1551 172.559 96.3505 172.332 95.538 172.332V172.332Z" stroke="#181B1B" stroke-miterlimit="10"/>
<path d="M287.868 172.332H277.615V129.526C277.615 127.252 276.978 125.072 275.844 123.464C274.71 121.857 273.172 120.953 271.569 120.953H269.166C268.372 120.953 267.586 121.175 266.852 121.606C266.119 122.037 265.452 122.668 264.891 123.464C264.329 124.26 263.884 125.205 263.58 126.245C263.276 127.286 263.12 128.4 263.12 129.526V172.332H234.2C233.605 172.332 233.02 172.114 232.502 171.7C231.984 171.285 231.55 170.687 231.243 169.965C230.936 169.242 230.766 168.419 230.749 167.576C230.733 166.733 230.87 165.898 231.148 165.152L261.756 83.0161C262.138 81.9921 262.369 80.869 262.436 79.7147C262.503 78.5605 262.405 77.3989 262.146 76.3002C261.888 75.2014 261.475 74.1883 260.933 73.322C260.391 72.4556 259.731 71.754 258.992 71.2594L257.185 70.0497C255.782 69.1103 254.178 68.9716 252.705 69.6623C251.232 70.3529 250.002 71.82 249.271 73.7601L211.94 172.772C211.304 174.458 210.971 176.34 210.971 178.252C210.971 181.335 211.835 184.292 213.373 186.472C214.91 188.652 216.996 189.877 219.17 189.877H263.12V216.945C263.12 219.67 263.883 222.284 265.243 224.211C266.602 226.138 268.445 227.22 270.367 227.22V227.22C272.29 227.22 274.133 226.138 275.492 224.211C276.852 222.284 277.615 219.67 277.615 216.945V189.877H287.868C288.681 189.877 289.485 189.65 290.236 189.209C290.986 188.768 291.668 188.122 292.243 187.307C292.817 186.493 293.273 185.526 293.584 184.461C293.895 183.397 294.055 182.256 294.055 181.105V181.105C294.055 178.778 293.403 176.547 292.243 174.902C291.083 173.257 289.509 172.332 287.868 172.332V172.332Z" stroke="#181B1B" stroke-miterlimit="10"/>
<path d="M155.818 63.8098C131.02 63.8098 113.215 86.3665 113.215 138.999C113.215 198.649 131.02 214.438 155.818 214.438C180.616 214.438 199.481 197.145 199.481 138.999C199.481 76.8426 180.616 63.8098 155.818 63.8098ZM155.981 194.639C138.805 194.639 129.832 180.352 129.832 139.037C129.832 102.583 139.173 83.3589 156.348 83.3589C173.524 83.3589 182.864 95.9865 182.864 139.037C182.864 179.311 173.157 194.639 155.981 194.639V194.639Z" stroke="#181B1B" stroke-miterlimit="10"/>
<path d="M135.941 12.7436C137.997 12.7436 139.663 10.3807 139.663 7.46597C139.663 4.55119 137.997 2.18829 135.941 2.18829C133.885 2.18829 132.218 4.55119 132.218 7.46597C132.218 10.3807 133.885 12.7436 135.941 12.7436Z" fill="#2F2E41"/>
<path d="M145.02 38.3597C150.786 38.3597 155.461 29.7726 155.461 19.1798C155.461 8.58711 150.786 0 145.02 0C139.254 0 134.579 8.58711 134.579 19.1798C134.579 29.7726 139.254 38.3597 145.02 38.3597Z" fill="#2F2E41"/>
<path opacity="0.1" d="M145.02 32.5671C139.79 32.5671 135.458 25.502 134.697 16.2836C134.618 17.2449 134.579 18.212 134.579 19.1799C134.579 29.7726 139.254 38.3597 145.02 38.3597C150.786 38.3597 155.461 29.7726 155.461 19.1799C155.461 18.212 155.422 17.2449 155.343 16.2836C154.582 25.502 150.25 32.5671 145.02 32.5671Z" fill="black"/>
<path d="M166.266 75.3488C166.042 76.6552 165.075 77.7015 164.004 78.4325C161.753 79.9693 158.977 80.4279 156.283 80.5819C155.596 80.6411 154.907 80.623 154.222 80.5279C152.894 80.3458 151.649 79.5341 150.687 78.2241C150.618 78.1607 150.562 78.0736 150.524 77.971C150.485 77.8684 150.466 77.7537 150.467 77.6375C150.468 77.5213 150.49 77.4075 150.531 77.3066C150.572 77.2058 150.63 77.1212 150.7 77.0607C152.134 74.8276 154.526 73.4583 156.937 72.4724C158.764 71.7248 161.952 69.7884 163.945 70.0498C165.876 70.3029 166.549 73.6993 166.266 75.3488Z" fill="#3F3D56"/>
<path opacity="0.1" d="M166.266 75.3488C166.042 76.6552 165.075 77.7015 164.004 78.4325C161.753 79.9693 158.977 80.4279 156.283 80.5819C155.596 80.6411 154.907 80.623 154.222 80.5279C152.894 80.3458 151.649 79.5341 150.687 78.2241C150.618 78.1607 150.562 78.0736 150.524 77.971C150.485 77.8684 150.466 77.7537 150.467 77.6375C150.468 77.5213 150.49 77.4075 150.531 77.3066C150.572 77.2058 150.63 77.1212 150.7 77.0607C152.134 74.8276 154.526 73.4583 156.937 72.4724C158.764 71.7248 161.952 69.7884 163.945 70.0498C165.876 70.3029 166.549 73.6993 166.266 75.3488Z" fill="black"/>
<path d="M137.644 65.585C136.957 67.4944 136.832 69.7125 137.298 71.7519C137.772 73.7759 138.658 75.555 139.846 76.8642C142.758 80.1743 146.767 80.6298 150.5 80.5839C153.771 80.5435 157.038 80.2261 160.283 79.6332C161.37 79.4966 162.438 79.1449 163.457 78.5883C164.675 77.8409 165.746 76.4702 166.18 74.6914C166.613 72.9127 166.305 70.7346 165.275 69.5475C164.37 68.5044 163.122 68.361 161.958 68.2618L155.296 67.6942C155.954 66.7499 156.831 66.2158 157.632 65.5292C158.695 64.6185 159.402 63.0893 160.175 61.7106C161.366 59.692 162.662 57.8026 164.053 56.0582C164.269 57.8216 165.056 59.2695 165.982 60.4862C166.908 61.7028 167.975 62.6823 168.938 63.8407C171.269 66.6464 172.947 70.4544 175.399 73.0453C177.085 72.417 178.662 71.3011 180.029 69.7676L179.077 67.3207C178.997 67.0689 178.873 66.8502 178.717 66.6855C178.448 66.4503 178.1 66.5715 177.787 66.5049C176.95 66.327 176.584 64.9569 176.256 63.851C175.354 60.8149 173.628 58.4593 172.154 55.9132C171.065 54.0337 170.1 52.0178 169.269 49.8903C168.774 48.6215 168.321 47.3004 167.649 46.2073C166.976 45.1141 166.035 44.2547 165.012 44.2516C164.108 44.2489 163.275 44.8994 162.497 45.5538C160.131 47.5469 157.854 49.7464 155.679 52.1396C154.541 53.3921 153.411 54.7154 152.076 55.4834C151.514 55.8068 150.921 56.0277 150.382 56.4212C149.438 57.1102 148.721 58.2761 147.95 59.311C145.198 63.0022 141.43 65.3938 137.644 65.585Z" fill="#5E3E00"/>
<path d="M151.573 39.3122C151.542 40.4405 151.373 41.5526 151.073 42.5986C150.921 43.1202 150.695 43.5919 150.408 43.9841C150.122 44.3763 149.782 44.6807 149.409 44.8783C148.879 45.0794 148.324 45.105 147.786 44.9529C147.318 44.8835 146.866 44.6653 146.465 44.3144C145.84 43.7056 145.528 42.6191 145.415 41.5559C145.302 40.4939 145.352 39.4088 145.28 38.3391C145.209 37.4751 145.093 36.6197 144.933 35.7801C144.884 35.5007 144.834 35.2227 144.785 34.9446C144.737 34.6666 144.69 34.3886 144.646 34.1105C144.606 33.8492 144.569 33.5866 144.537 33.3227C144.511 33.1 144.487 32.876 144.47 32.6508C144.454 31.983 144.375 31.3211 144.237 30.6826C144.106 30.2685 143.943 29.8768 143.75 29.5151C143.667 29.3477 143.587 29.1804 143.514 29.0066C143.301 28.555 143.202 28.0148 143.233 27.4735C143.242 27.3898 143.256 27.3075 143.276 27.2277C143.283 27.1968 143.291 27.1659 143.3 27.1363C143.382 27.1048 143.457 27.0456 143.519 26.9637C143.581 26.8818 143.628 26.7798 143.655 26.6664C143.687 26.4229 143.672 26.172 143.613 25.9391C143.545 25.6137 143.452 25.2999 143.336 25.0033C143.26 24.8076 143.001 24.4549 142.999 24.2309C142.995 23.7804 143.616 23.4174 143.868 23.2398C144.636 22.6947 145.492 22.4486 146.348 22.5266C146.898 22.5794 147.493 22.8188 147.796 23.4715C148.069 24.0597 148.032 24.8218 148.149 25.5053C148.161 25.6047 148.191 25.6981 148.235 25.7769C148.294 25.8535 148.369 25.902 148.448 25.9159C148.583 25.9539 148.721 25.9617 148.857 25.9391H148.858C148.894 25.9351 148.93 25.9277 148.965 25.9172C149.177 25.8617 149.378 25.739 149.551 25.5581C149.664 25.5156 149.778 25.4808 149.892 25.4538C149.897 25.4531 149.901 25.4518 149.906 25.4499C150.36 27.4851 150.419 29.6669 150.792 31.7394C150.976 32.7705 151.24 33.7887 151.277 34.8494C151.28 34.8957 151.281 34.9433 151.282 34.9909C151.287 35.3321 151.268 35.6758 151.278 36.0156C151.282 36.1686 151.294 36.321 151.315 36.4713C151.355 36.713 151.406 36.9511 151.466 37.1844L151.469 37.196C151.486 37.2706 151.503 37.3466 151.516 37.4225C151.526 37.4779 151.535 37.532 151.543 37.5873L151.543 37.5912C151.611 38.16 151.621 38.7394 151.573 39.3122Z" fill="#FBBEBE"/>
<path d="M145.202 26.0022C148.16 26.0022 150.558 22.6019 150.558 18.4075C150.558 14.2131 148.16 10.8128 145.202 10.8128C142.243 10.8128 139.845 14.2131 139.845 18.4075C139.845 22.6019 142.243 26.0022 145.202 26.0022Z" fill="#FBBEBE"/>
<path d="M179.21 59.787C179.055 57.715 178.535 55.7313 177.699 54.0177C177.838 55.189 177.978 56.36 178.117 57.5305C177.944 57.6017 177.759 57.5995 177.587 57.5243C177.414 57.449 177.261 57.304 177.146 57.107C176.92 56.7077 176.747 56.2537 176.636 55.767C176.028 53.625 175.232 51.5998 174.267 49.7389C170.857 49.336 167.486 47.3317 164.487 44.9954C161.488 42.6603 158.68 39.8606 155.721 37.4265C155.208 36.9867 154.673 36.5995 154.121 36.2679C153.195 35.7414 152.155 35.4685 151.277 34.8494C151.218 34.8082 151.159 34.7644 151.101 34.7194C150.903 34.5664 150.715 34.3876 150.54 34.1852C150.446 34.0763 150.356 33.9594 150.271 33.835C149.833 33.1125 149.486 32.2887 149.244 31.3996C148.773 29.9218 148.605 28.139 148.135 26.6613C148.351 26.3749 148.594 26.1319 148.857 25.9391H148.858C148.896 25.9108 148.934 25.8838 148.973 25.858C149.159 25.7338 149.353 25.6334 149.551 25.5581C149.664 25.5156 149.777 25.4809 149.892 25.4538C149.896 25.4532 149.901 25.4519 149.905 25.45C150.436 25.3274 150.979 25.3884 151.49 25.6276C152.236 25.9855 152.865 26.6999 153.493 27.3757C154.512 28.3937 155.489 29.4931 156.421 30.6684C156.938 31.3712 157.41 32.1436 157.967 32.7821C158.429 33.2881 158.917 33.7463 159.426 34.153C162.437 36.6966 165.449 39.2397 168.461 41.7824C169.481 42.6436 170.501 43.5048 171.498 44.4161C173.013 45.8012 174.473 47.3021 175.932 48.8017C176.791 49.6848 177.651 50.5683 178.51 51.4522C178.792 51.7071 179.04 52.0315 179.241 52.4099C179.419 52.8395 179.53 53.3185 179.565 53.8143C179.781 55.817 179.659 57.8637 179.21 59.787Z" fill="#FBBEBE"/>
<path d="M152.902 45.0237C152.54 47.3214 150.902 48.7104 150.046 50.7288C148.982 53.2337 149.416 56.1454 149.816 59.0147C149.086 59.9068 148.355 60.7988 147.625 61.6909C147.222 62.1813 146.819 62.6743 146.385 63.1081C145.752 63.7093 145.09 64.2478 144.405 64.7197C143.759 65.1909 143.112 65.6624 142.466 66.1344C141.865 66.6135 141.228 66.996 140.568 67.2749C139.294 67.7383 137.941 67.4139 136.681 66.8771C136.532 66.8219 136.389 66.7392 136.256 66.6313C136.177 66.5648 136.109 66.4769 136.054 66.3725C135.93 66.0567 135.885 65.6906 135.926 65.3338C136.054 62.3268 136.573 59.3829 137.089 56.4608C137.365 54.7078 137.737 52.9877 138.2 51.3157C138.654 49.8831 139.176 48.4957 139.762 47.1631C140.409 45.4864 141.176 43.9081 142.05 42.4531C142.476 41.8931 142.834 41.2383 143.111 40.5145C143.433 39.4719 143.309 38.276 143.374 37.1407C143.424 36.2877 143.584 35.4548 143.845 34.6833V34.6821C143.985 34.2665 144.153 33.8715 144.348 33.5029C144.436 33.7939 144.524 34.0843 144.612 34.3744C144.67 34.5649 144.728 34.755 144.785 34.9447C144.859 35.1892 144.933 35.433 145.006 35.6758C145.218 36.3735 145.429 37.0708 145.64 37.7676C145.868 38.6452 146.193 39.466 146.602 40.1992C146.79 40.5746 147.042 40.8748 147.336 41.0704C147.629 41.266 147.954 41.3503 148.277 41.3152C148.6 41.28 148.912 41.1266 149.181 40.8698C149.45 40.6131 149.667 40.2618 149.812 39.8503C150.117 39.0822 150.338 38.2527 150.467 37.3904C150.647 36.3404 150.671 35.2493 150.54 34.1852C150.321 32.1359 149.707 30.0429 149.26 28.139C149.078 27.5043 148.973 26.8307 148.949 26.1464C148.949 26.0695 148.955 25.9929 148.965 25.9173C148.968 25.898 148.97 25.8774 148.973 25.8581C149.159 25.7338 149.353 25.6334 149.551 25.5581C149.664 25.5156 149.777 25.4809 149.892 25.4539C150.285 28.4711 150.679 31.4884 151.073 34.5057C151.082 34.5765 151.092 34.6473 151.101 34.7194C151.157 35.1519 151.215 35.5844 151.278 36.0156C151.335 36.407 151.397 36.797 151.466 37.1845L151.469 37.196C151.492 37.3274 151.517 37.4573 151.542 37.5874L151.543 37.5912C151.613 37.9465 151.691 38.2992 151.779 38.6468C152.313 40.7411 153.244 42.8496 152.902 45.0237Z" fill="#181B1B"/>
<path d="M174.641 77.314C174.624 77.7566 174.685 78.1983 174.817 78.5998C175.152 79.4685 175.957 79.666 176.653 79.7473C180.719 80.2211 184.81 80.0444 188.848 79.2205C189.067 79.1992 189.28 79.1057 189.469 78.9473C190.043 78.3766 189.689 76.9857 189.062 76.5405C188.435 76.0952 187.691 76.2025 187.003 76.0097C186.32 75.7658 185.669 75.3656 185.076 74.8249C183.681 73.6886 182.307 72.5038 180.952 71.2707C180.146 70.5366 179.194 69.7531 178.286 70.1884C175.827 71.3682 174.625 73.5519 174.641 77.314Z" fill="#181B1B"/>
<path d="M144.667 33.9496V33.9509C144.66 34.005 144.654 34.0577 144.646 34.1105C144.636 34.1981 144.624 34.2869 144.612 34.3744C144.5 35.1918 144.362 36.0053 144.203 36.8137C143.767 39.0471 143.183 41.2444 142.604 43.4095C141.05 49.2149 139.495 55.0208 137.94 60.8271C137.548 62.2894 137.157 63.753 136.711 65.1857C136.562 65.6633 136.408 66.1447 136.256 66.6313C135.709 68.3729 135.185 70.1712 135.01 72.0248C134.848 73.2447 134.829 74.4944 134.955 75.723C135.129 76.9382 135.649 78.125 136.464 78.5743C136.861 78.7944 137.431 79.0891 137.322 79.6748C137.263 79.9967 137.005 80.1537 136.773 80.2077C136.468 80.2768 136.155 80.2497 135.857 80.1282C135.56 80.0068 135.285 79.794 135.052 79.5049C134.617 78.9579 134.283 78.107 133.705 78.0156C133.304 77.9538 132.936 78.2936 132.569 78.5318C131.073 79.5011 129.329 78.8227 127.758 78.134C127.881 77.2317 128.52 76.637 129.155 76.4568C129.79 76.2753 130.446 76.404 131.093 76.3795C131.301 76.3952 131.506 76.3202 131.683 76.1646C131.841 75.959 131.951 75.6908 132 75.3948C132.417 73.643 132.728 71.8437 132.927 70.0167C133.136 68.1077 133.223 66.1692 133.521 64.2834C133.753 62.812 134.11 61.3871 134.417 59.9428C135.011 56.9691 135.498 53.9548 135.877 50.9115C136.069 49.6472 136.206 48.3674 136.289 47.0794C136.34 46.011 136.316 44.9375 136.388 43.8729C136.51 42.4879 136.714 41.1199 136.998 39.7834C137.275 38.3249 137.553 36.8673 137.83 35.4106C138.241 33.2545 138.683 31.0147 139.725 29.3387C140.087 28.7487 140.531 28.2704 141.028 27.9334C141.526 27.5964 142.067 27.4079 142.619 27.3796C142.825 27.3792 143.031 27.4107 143.233 27.4735C143.267 27.4851 143.3 27.4967 143.334 27.5095C143.554 27.5911 143.765 27.715 143.961 27.8777C144.283 27.5881 144.446 27.6898 144.66 28.1364C144.847 28.6092 144.935 29.1476 144.914 29.6889C144.932 31.1172 144.849 32.5446 144.667 33.9496Z" fill="#FBBEBE"/>
<path d="M145.02 35.6565L145.006 35.6758L144.933 35.78L144.203 36.8137L143.845 34.6833L142.619 27.3795C142.825 27.3792 143.031 27.4107 143.233 27.4735C143.242 27.3898 143.256 27.3075 143.276 27.2276L143.334 27.5095L143.75 29.515L144.537 33.3227L144.667 33.9496V33.9509L145.02 35.6565Z" fill="#181B1B"/>
<path d="M149.652 12.3555C149.651 13.0318 149.557 13.7013 149.374 14.3257C149.19 14.9501 148.922 15.5173 148.584 15.9946C148.462 16.1684 148.331 16.3292 148.192 16.4759C147.565 17.1455 146.802 17.5079 146.018 17.5085H141.662C140.699 17.5063 139.777 16.9628 139.097 15.9971C138.417 15.0314 138.035 13.7226 138.035 12.358C138.035 10.9934 138.417 9.68456 139.097 8.71889C139.777 7.75322 140.699 7.20966 141.662 7.20755H146.018C146.98 7.2111 147.903 7.75446 148.583 8.71897C149.264 9.68349 149.649 10.9908 149.652 12.3555Z" fill="#2F2E41"/>
<path d="M153.736 12.7436C155.792 12.7436 157.458 10.3807 157.458 7.46597C157.458 4.55119 155.792 2.18829 153.736 2.18829C151.68 2.18829 150.013 4.55119 150.013 7.46597C150.013 10.3807 151.68 12.7436 153.736 12.7436Z" fill="#2F2E41"/>
<path opacity="0.1" d="M153.645 2.18829C153.599 2.18829 153.554 2.19086 153.509 2.19317C154.472 2.24281 155.384 2.82006 156.053 3.80348C156.721 4.78689 157.095 6.09981 157.095 7.46597C157.095 8.83214 156.721 10.145 156.053 11.1285C155.384 12.1119 154.472 12.6891 153.509 12.7388C153.554 12.7411 153.599 12.7436 153.645 12.7436C154.632 12.7436 155.579 12.1876 156.277 11.1978C156.975 10.2081 157.368 8.8657 157.368 7.46597C157.368 6.06625 156.975 4.72385 156.277 3.73409C155.579 2.74433 154.632 2.18829 153.645 2.18829Z" fill="black"/>
<path opacity="0.1" d="M135.941 2.18829C135.987 2.18829 136.032 2.19086 136.077 2.19317C135.114 2.24281 134.202 2.82006 133.533 3.80348C132.865 4.78689 132.491 6.09981 132.491 7.46597C132.491 8.83214 132.865 10.145 133.533 11.1285C134.202 12.1119 135.114 12.6891 136.077 12.7388C136.032 12.7411 135.987 12.7436 135.941 12.7436C134.954 12.7424 134.008 12.1858 133.311 11.1962C132.613 10.2066 132.222 8.86489 132.222 7.46597C132.222 6.06705 132.613 4.72535 133.311 3.73573C134.008 2.74611 134.954 2.18953 135.941 2.18829Z" fill="black"/>
<path opacity="0.1" d="M148.192 16.4759C147.565 17.1455 146.802 17.508 146.018 17.5085H141.662C140.877 17.508 140.114 17.1455 139.488 16.4759H148.192Z" fill="black"/>
<path d="M176.32 54.7175C176.32 54.7175 177.258 58.5513 178.117 57.5305L177.432 52.5193L176.32 54.7175Z" fill="#FBBEBE"/>
<path d="M290.516 171.631C291.39 172.082 292.326 172.238 293.25 172.089C294.174 171.939 295.061 171.487 295.84 170.768C296.62 170.05 297.271 169.084 297.743 167.947C298.215 166.811 298.494 165.535 298.558 164.219C298.623 162.904 298.471 161.585 298.114 160.367C297.758 159.149 297.207 158.065 296.505 157.201C295.803 156.336 294.968 155.715 294.068 155.386C293.167 155.056 292.225 155.028 291.315 155.303L291.466 159.685L290.003 155.929C288.568 156.885 287.459 158.61 286.921 160.725C286.729 161.466 286.613 162.241 286.575 163.028C286.483 164.874 286.818 166.713 287.529 168.266C288.24 169.818 289.288 171 290.516 171.631Z" fill="#5E3E00"/>
<path d="M297.751 222.457C297.235 218.731 299.472 215.427 301.682 213.279C303.891 211.131 306.473 209.021 307.227 205.377C308.31 200.139 305.083 195.342 302.571 191.205C300.707 188.136 299.107 184.763 297.803 181.159C297.281 179.714 296.8 178.204 296.663 176.591C296.465 174.27 296.991 171.959 297.521 169.745C299.287 162.367 301.174 155.051 303.184 147.797" stroke="#181B1B" stroke-miterlimit="10"/>
<path d="M290.763 170.503C291.637 170.954 292.573 171.11 293.497 170.96C294.421 170.811 295.308 170.359 296.088 169.64C296.867 168.921 297.519 167.956 297.99 166.819C298.462 165.683 298.741 164.407 298.805 163.091C298.87 161.776 298.718 160.457 298.362 159.239C298.005 158.021 297.454 156.937 296.752 156.073C296.05 155.208 295.215 154.587 294.315 154.257C293.414 153.928 292.472 153.9 291.563 154.174L291.713 158.557L290.251 154.801C288.815 155.757 287.707 157.482 287.168 159.597C286.977 160.337 286.86 161.113 286.823 161.9C286.73 163.746 287.065 165.585 287.776 167.137C288.487 168.69 289.536 169.872 290.763 170.503V170.503Z" stroke="#181B1B" stroke-miterlimit="10"/>
<path d="M297.018 146.284C297.361 144.942 297.936 143.744 298.692 142.801C299.447 141.857 300.358 141.198 301.34 140.885L301.834 145.051L302.751 140.675C304.024 140.702 305.258 141.302 306.274 142.388C307.291 143.473 308.038 144.989 308.408 146.716C308.777 148.443 308.75 150.292 308.33 151.996C307.91 153.699 307.119 155.17 306.072 156.195C305.024 157.22 303.774 157.746 302.501 157.698C301.229 157.649 300 157.029 298.992 155.926C297.985 154.823 297.251 153.295 296.896 151.562C296.541 149.829 296.583 147.98 297.018 146.284H297.018Z" fill="#181B1B"/>
<path d="M297.347 144.78C297.69 143.438 298.266 142.24 299.021 141.296C299.777 140.353 300.687 139.694 301.669 139.381L302.164 143.547L303.081 139.171C304.353 139.198 305.587 139.798 306.604 140.883C307.621 141.969 308.368 143.485 308.737 145.212C309.107 146.939 309.08 148.788 308.66 150.491C308.24 152.195 307.449 153.666 306.401 154.69C305.354 155.715 304.103 156.242 302.831 156.193C301.558 156.145 300.33 155.525 299.322 154.422C298.315 153.319 297.58 151.791 297.225 150.057C296.87 148.324 296.913 146.476 297.347 144.78H297.347Z" stroke="#181B1B" stroke-miterlimit="10"/>
<path d="M301.517 191.29C302.903 192.003 304.426 191.968 305.795 191.191C307.164 190.414 308.283 188.951 308.94 187.079C309.597 185.207 309.745 183.058 309.356 181.042C308.967 179.025 308.069 177.282 306.831 176.144L306.127 179.507L305.628 175.292C305.623 175.288 305.617 175.286 305.612 175.283C304.871 174.901 304.084 174.73 303.295 174.78C302.507 174.829 301.734 175.098 301.019 175.572C300.305 176.045 299.663 176.714 299.13 177.539C298.598 178.364 298.185 179.33 297.916 180.382C297.647 181.433 297.527 182.549 297.562 183.667C297.598 184.784 297.788 185.88 298.122 186.893C298.457 187.906 298.929 188.816 299.511 189.57C300.094 190.325 300.775 190.909 301.517 191.29Z" fill="#5E3E00"/>
<path d="M301.802 189.766C303.189 190.479 304.711 190.444 306.08 189.667C307.449 188.891 308.569 187.427 309.226 185.555C309.883 183.683 310.031 181.535 309.642 179.518C309.253 177.501 308.354 175.758 307.117 174.621L306.413 177.983L305.913 173.768C305.908 173.765 305.903 173.762 305.898 173.76C305.156 173.378 304.369 173.207 303.581 173.256C302.793 173.305 302.02 173.575 301.305 174.048C300.59 174.522 299.948 175.19 299.416 176.015C298.883 176.841 298.471 177.807 298.202 178.858C297.933 179.909 297.813 181.026 297.848 182.143C297.883 183.26 298.074 184.357 298.408 185.37C298.742 186.383 299.214 187.292 299.797 188.047C300.379 188.801 301.061 189.385 301.802 189.766H301.802Z" stroke="#181B1B" stroke-miterlimit="10"/>
<path d="M295.265 205.429C295.503 207.352 296.201 209.1 297.24 210.38C298.28 211.66 299.598 212.395 300.974 212.461C302.351 212.526 303.701 211.919 304.799 210.741C305.897 209.563 306.675 207.885 307.004 205.989C307.334 204.094 307.193 202.095 306.606 200.329C306.019 198.563 305.022 197.137 303.781 196.29C302.541 195.442 301.132 195.226 299.793 195.676C298.453 196.126 297.263 197.215 296.422 198.762L299.098 204.471L295.442 201.441C295.159 202.731 295.098 204.099 295.265 205.429Z" fill="#181B1B"/>
<path d="M295.512 204.301C295.751 206.223 296.448 207.972 297.488 209.252C298.527 210.532 299.846 211.267 301.222 211.332C302.598 211.398 303.948 210.791 305.046 209.613C306.144 208.434 306.923 206.757 307.252 204.861C307.581 202.965 307.44 200.967 306.853 199.201C306.266 197.435 305.269 196.009 304.028 195.161C302.788 194.314 301.38 194.097 300.04 194.548C298.7 194.998 297.51 196.087 296.67 197.634L299.345 203.343L295.689 200.313C295.406 201.603 295.345 202.97 295.512 204.301V204.301Z" stroke="#181B1B" stroke-miterlimit="10"/>
<path d="M2.59888 192.372C3.17315 192.668 3.78806 192.77 4.39515 192.672C5.00223 192.574 5.5849 192.277 6.09722 191.804C6.60954 191.332 7.03751 190.698 7.34739 189.951C7.65728 189.205 7.84061 188.366 7.88294 187.502C7.92527 186.638 7.82543 185.771 7.59131 184.971C7.35718 184.171 6.99516 183.459 6.53378 182.891C6.07241 182.323 5.52428 181.914 4.93262 181.698C4.34095 181.481 3.72192 181.463 3.1243 181.643L3.22306 184.523L2.26227 182.055C1.31932 182.683 0.590846 183.816 0.236941 185.206C0.111254 185.692 0.0348461 186.202 0.00999592 186.719C-0.0506493 187.932 0.169275 189.14 0.63644 190.16C1.10361 191.18 1.79255 191.957 2.59888 192.372Z" fill="#5E3E00"/>
<path d="M7.35301 225.765C7.01386 223.317 8.4835 221.146 9.93516 219.735C11.3868 218.324 13.083 216.938 13.5783 214.543C14.2902 211.102 12.1698 207.95 10.5194 205.232C9.29504 203.215 8.24356 201 7.38702 198.632C7.01463 197.702 6.761 196.686 6.63779 195.63C6.50766 194.105 6.85332 192.587 7.20156 191.132C8.36165 186.285 9.60199 181.478 10.9226 176.712" stroke="#181B1B" stroke-miterlimit="10"/>
<path d="M2.76136 191.63C3.33563 191.926 3.95054 192.029 4.55762 191.931C5.16471 191.832 5.74737 191.535 6.25969 191.063C6.77201 190.591 7.19998 189.957 7.50986 189.21C7.81975 188.463 8.00308 187.625 8.04541 186.761C8.08773 185.896 7.9879 185.03 7.75377 184.23C7.51965 183.429 7.15763 182.717 6.69626 182.149C6.23488 181.581 5.68676 181.173 5.09509 180.957C4.50343 180.74 3.88439 180.721 3.28678 180.902L3.38554 183.781L2.42475 181.314C1.48179 181.942 0.753321 183.075 0.399416 184.465C0.273731 184.951 0.197324 185.461 0.172473 185.978C0.111824 187.191 0.331746 188.399 0.798913 189.419C1.26608 190.439 1.95503 191.215 2.76136 191.63V191.63Z" stroke="#181B1B" stroke-miterlimit="10"/>
<path d="M6.87074 175.718C7.09611 174.836 7.47436 174.049 7.97063 173.429C8.46691 172.809 9.06526 172.377 9.71053 172.171L10.0354 174.908L10.6377 172.033C11.4739 172.051 12.2845 172.445 12.9526 173.158C13.6206 173.871 14.1115 174.867 14.3543 176.002C14.5971 177.136 14.5792 178.351 14.3034 179.471C14.0275 180.59 13.5079 181.556 12.8195 182.229C12.1311 182.903 11.3096 183.249 10.4736 183.217C9.63758 183.185 8.8303 182.778 8.16831 182.053C7.50633 181.328 7.0239 180.324 6.79067 179.185C6.55744 178.047 6.58548 176.832 6.87074 175.718Z" fill="#181B1B"/>
<path d="M7.08742 174.729C7.31278 173.848 7.69103 173.061 8.18731 172.441C8.68359 171.821 9.28193 171.388 9.92721 171.182L10.2521 173.919L10.8543 171.045C11.6906 171.062 12.5012 171.456 13.1693 172.17C13.8373 172.883 14.3281 173.879 14.5709 175.013C14.8137 176.148 14.7959 177.363 14.52 178.482C14.2442 179.602 13.7246 180.568 13.0362 181.241C12.3478 181.914 11.5263 182.26 10.6903 182.229C9.85425 182.197 9.04697 181.789 8.38499 181.065C7.723 180.34 7.24057 179.336 7.00734 178.197C6.77411 177.058 6.80215 175.844 7.08742 174.729V174.729Z" stroke="#181B1B" stroke-miterlimit="10"/>
<path d="M9.82672 205.288C10.7375 205.756 11.7379 205.733 12.6374 205.223C13.5369 204.712 14.2725 203.751 14.704 202.521C15.1355 201.291 15.2328 199.879 14.9773 198.554C14.7218 197.229 14.1313 196.084 13.3185 195.337L12.8557 197.546L12.5275 194.776C12.5243 194.774 12.5209 194.772 12.5175 194.771C12.0303 194.52 11.5131 194.407 10.9952 194.44C10.4774 194.472 9.9691 194.649 9.49946 194.96C9.02983 195.271 8.60803 195.71 8.25817 196.253C7.90831 196.795 7.63725 197.429 7.46048 198.12C7.28372 198.811 7.20471 199.545 7.22797 200.279C7.25124 201.013 7.37632 201.734 7.59607 202.399C7.81582 203.065 8.12593 203.662 8.50868 204.158C8.89142 204.654 9.3393 205.037 9.82672 205.288Z" fill="#5E3E00"/>
<path d="M10.0145 204.286C10.9253 204.755 11.9257 204.732 12.8252 204.221C13.7247 203.711 14.4603 202.75 14.8918 201.52C15.3233 200.29 15.4206 198.878 15.1651 197.553C14.9096 196.228 14.3191 195.083 13.5063 194.336L13.0435 196.545L12.7153 193.775C12.7121 193.773 12.7087 193.771 12.7053 193.77C12.2182 193.519 11.7012 193.407 11.1836 193.44C10.666 193.473 10.1581 193.65 9.68875 193.961C8.74092 194.59 8.00798 195.726 7.65116 197.121C7.29434 198.515 7.34288 200.054 7.7861 201.398C8.22931 202.741 9.0309 203.781 10.0145 204.286V204.286Z" stroke="#181B1B" stroke-miterlimit="10"/>
<path d="M5.7193 214.577C5.87589 215.84 6.3341 216.989 7.01708 217.83C7.70005 218.671 8.56626 219.154 9.47043 219.197C10.3746 219.24 11.2617 218.841 11.9831 218.067C12.7044 217.293 13.2161 216.191 13.4323 214.945C13.6485 213.7 13.556 212.387 13.1704 211.227C12.7848 210.066 12.1296 209.129 11.3145 208.573C10.4995 208.016 9.57423 207.873 8.69392 208.169C7.81362 208.465 7.0318 209.181 6.47959 210.197L8.23744 213.948L5.83556 211.957C5.64933 212.805 5.60946 213.703 5.7193 214.577Z" fill="#181B1B"/>
<path d="M5.8819 213.836C6.03849 215.099 6.4967 216.248 7.17967 217.089C7.86265 217.93 8.72886 218.413 9.63303 218.456C10.5372 218.499 11.4243 218.1 12.1457 217.326C12.867 216.552 13.3787 215.45 13.5949 214.204C13.811 212.959 13.7186 211.646 13.333 210.485C12.9474 209.325 12.2922 208.388 11.4771 207.831C10.6621 207.275 9.73683 207.132 8.85652 207.428C7.97621 207.724 7.1944 208.44 6.64219 209.456L8.40004 213.207L5.99816 211.216C5.81193 212.063 5.77206 212.962 5.8819 213.836V213.836Z" stroke="#181B1B" stroke-miterlimit="10"/>
</g>
<defs>
<clipPath id="clip0">
<rect width="310" height="239" fill="white"/>
</clipPath>
</defs>
</svg>
