<svg width="260" height="823" viewBox="0 0 260 823" fill="none" xmlns="http://www.w3.org/2000/svg">
<g filter="url(#filter0_d)">
<path d="M253.5 72.3802C254.451 26.5434 227.608 1.2587 192 -27.6198C124.361 -82.4752 -31 -27.6198 -31 -27.6198L-18.5 906.88C-18.5 906.88 263.191 1012.66 253.5 906.88C249.256 860.56 188.108 851.231 192 804.88C195.428 764.052 253.5 760.852 253.5 719.88C253.5 678.908 193.824 675.811 192 634.88C190.054 591.219 258.367 584.813 253.5 541.38C249.315 504.038 187.293 504.66 192 467.38C196.119 434.76 244.257 441.434 253.5 409.88C266.765 364.599 179.51 351.382 192 305.88C200.846 273.654 248.924 279.483 253.5 246.38C258.833 207.803 195.594 206.658 192 167.88C187.906 123.71 252.579 116.73 253.5 72.3802Z" fill="#AB9B7E"/>
<path d="M253.5 72.3802C254.451 26.5434 227.608 1.2587 192 -27.6198C124.361 -82.4752 -31 -27.6198 -31 -27.6198L-18.5 906.88C-18.5 906.88 263.191 1012.66 253.5 906.88C249.256 860.56 188.108 851.231 192 804.88C195.428 764.052 253.5 760.852 253.5 719.88C253.5 678.908 193.824 675.811 192 634.88C190.054 591.219 258.367 584.813 253.5 541.38C249.315 504.038 187.293 504.66 192 467.38C196.119 434.76 244.257 441.434 253.5 409.88C266.765 364.599 179.51 351.382 192 305.88C200.846 273.654 248.924 279.483 253.5 246.38C258.833 207.803 195.594 206.658 192 167.88C187.906 123.71 252.579 116.73 253.5 72.3802Z" stroke="#181B1B"/>
</g>
<defs>
<filter id="filter0_d" x="-35.5048" y="-52.5" width="294.882" height="1014.89" filterUnits="userSpaceOnUse" color-interpolation-filters="sRGB">
<feFlood flood-opacity="0" result="BackgroundImageFix"/>
<feColorMatrix in="SourceAlpha" type="matrix" values="0 0 0 0 0 0 0 0 0 0 0 0 0 0 0 0 0 0 127 0"/>
<feOffset dy="4"/>
<feGaussianBlur stdDeviation="2"/>
<feColorMatrix type="matrix" values="0 0 0 0 0.0941176 0 0 0 0 0.105882 0 0 0 0 0.105882 0 0 0 1 0"/>
<feBlend mode="normal" in2="BackgroundImageFix" result="effect1_dropShadow"/>
<feBlend mode="normal" in="SourceGraphic" in2="effect1_dropShadow" result="shape"/>
</filter>
</defs>
</svg>
